<svg xmlns="http://www.w3.org/2000/svg" viewBox="0 0 64 64" id="space"><path fill="#222" d="M29.39 40.48a107.92 107.92 0 0 0 13.38 4 15.48 15.48 0 0 1-26.15-9.52 109 109 0 0 0 12.77 5.52Zm.69-1.88a100.19 100.19 0 0 1-13.53-6 15.3 15.3 0 0 1 3.19-8.76q.47-.6 1-1.17c.16-.17.33-.34.5-.5A15.32 15.32 0 0 1 32 17.78a15.5 15.5 0 0 1 15.4 13.86 14.57 14.57 0 0 1 .09 1.63v.67a15.29 15.29 0 0 1-3.19 8.78 102.49 102.49 0 0 1-14.22-4.12Zm-6.29-13.35a11.68 11.68 0 0 1 10.05-3.32A1 1 0 0 0 35 21.1a1 1 0 0 0-.84-1.1 13.83 13.83 0 0 0-2.16-.22 13.59 13.59 0 0 0-9.66 4.08 1 1 0 0 0 0 1.41 1 1 0 0 0 1.41 0Zm-7.23 9V32.59c-.68-.36-1.32-.72-1.93-1.09C8.92 28.16 6 25.25 6.48 24c.36-1 3.64-1.83 11.09-.55A15.77 15.77 0 0 1 19 21.64c-5.53-1-13.13-1.78-14.37 1.64-1 2.88 3.3 6.78 9.94 10.5.61.34 1.23.68 1.88 1l.2.1q0-.3-.06-.6Zm32.94-1.48v.5a17.14 17.14 0 0 1-.08 1.73c6.47 3.77 8.51 6.55 8.14 7.56-.25.68-2.28 1.66-8.31.95-.89-.11-1.82-.24-2.78-.41L45 42.86h-.12l-.52-.11c-.12.16-.24.31-.37.46a15 15 0 0 1-1.08 1.17l-.08.08c.79.17 1.54.33 2.29.47a2.2 2.2 0 0 1-.2.23l.21-.23c1.38.26 2.69.47 3.93.61a34 34 0 0 0 4 .27c3.66 0 5.81-.85 6.42-2.52 1.2-3.42-5.01-7.71-9.98-10.52Zm2.37-14.27a5.7 5.7 0 1 0-5.69-5.69 5.7 5.7 0 0 0 5.69 5.69ZM34 11.42a.92.92 0 1 0-.92-.92.92.92 0 0 0 .92.92Zm-13-3a.92.92 0 1 0-.92-.92.92.92 0 0 0 .92.92ZM51.08 25.5a.92.92 0 1 0 .92-.92.92.92 0 0 0-.92.92ZM60 22.42a.92.92 0 1 0-.92-.92.92.92 0 0 0 .92.92Zm0 9.16a.92.92 0 1 0 .92.92.92.92 0 0 0-.92-.92Zm-56 0a.92.92 0 1 0 .92.92.92.92 0 0 0-.92-.92Zm5 10a.92.92 0 1 0 .92.92.92.92 0 0 0-.92-.92Zm-3 8a.92.92 0 1 0 .92.92.92.92 0 0 0-.92-.92Zm41 0a.92.92 0 1 0 .92.92.92.92 0 0 0-.92-.92Zm6 5a.92.92 0 1 0 .92.92.92.92 0 0 0-.92-.92ZM12 15.42a.92.92 0 1 0-.92-.92.92.92 0 0 0 .92.92Zm8.89-1.92A1.11 1.11 0 1 0 22 12.39a1.11 1.11 0 0 0-1.11 1.11ZM13 48.39a1.11 1.11 0 1 0 1.11 1.11A1.11 1.11 0 0 0 13 48.39Zm21 7a1.11 1.11 0 1 0 1.11 1.11A1.11 1.11 0 0 0 34 55.39Zm5-46.78a1.11 1.11 0 1 0-1.11-1.11A1.11 1.11 0 0 0 39 8.61Z"></path></svg>